<?xml version="1.0" encoding="UTF-8"?>
<svg width="32px" height="32px" viewBox="0 0 32 32" version="1.1" xmlns="http://www.w3.org/2000/svg" xmlns:xlink="http://www.w3.org/1999/xlink">
    <title>Desktop</title>
    <g id="Page-1" stroke="none" stroke-width="1" fill="none" fill-rule="evenodd">
        <g id="Desktop" transform="translate(-73.000000, -658.000000)">
            <g id="cib:mathworks" transform="translate(73.000000, 658.000000)">
                <rect id="ViewBox" x="0" y="0" width="32" height="32"></rect>
                <path d="M5.765,21.661 C4.172,20.473 2.188,19.078 0,17.489 L7.749,14.51 L10.932,16.895 C8.547,19.676 6.959,20.671 5.765,21.666 L5.765,21.661 Z M27.031,13.317 C26.432,11.729 26.036,10.136 25.438,8.546 C24.845,6.754 24.251,5.166 23.255,3.775 C22.855,3.182 22.063,1.786 21.068,1.786 C20.869,1.786 20.672,1.983 20.469,1.983 C19.874,2.187 19.078,3.374 18.88,4.171 C18.287,5.166 17.088,6.754 16.297,7.748 C16.098,8.144 15.697,8.545 15.5,8.744 C14.907,9.139 14.307,9.739 13.516,10.135 C13.312,10.135 13.115,10.332 12.917,10.332 C12.322,10.332 11.921,10.728 11.526,10.925 C10.931,11.525 10.333,12.316 9.739,12.916 C9.739,13.113 9.535,13.311 9.338,13.515 L12.322,15.696 C14.51,13.113 17.093,10.529 18.879,5.561 C18.879,5.561 18.286,10.93 13.515,16.692 C10.53,20.072 8.144,21.863 7.748,22.259 C7.748,22.259 8.54,22.062 9.337,22.458 C10.93,23.051 11.722,25.239 12.321,26.827 C12.717,28.02 13.31,29.015 13.712,30.207 C15.301,29.811 16.296,29.212 17.291,28.218 C18.28,27.229 19.275,26.035 20.27,25.041 C22.062,22.854 24.245,20.073 27.026,21.464 C27.426,21.661 28.021,22.063 28.218,22.26 C28.817,22.656 29.213,23.052 29.811,23.651 C30.802,24.443 31.202,25.042 31.994,25.438 C30.01,21.465 28.619,17.49 27.026,13.313 L27.031,13.317 Z" id="Shape" fill="#FFFFFF" fill-rule="nonzero"></path>
            </g>
        </g>
    </g>
</svg>