<?xml version="1.0" encoding="UTF-8"?>
<svg width="120px" height="108px" viewBox="0 0 120 108" version="1.1" xmlns="http://www.w3.org/2000/svg" xmlns:xlink="http://www.w3.org/1999/xlink">
    <title>Desktop</title>
    <g id="Page-1" stroke="none" stroke-width="1" fill="none" fill-rule="evenodd">
        <g id="Desktop" transform="translate(-43.000000, -633.000000)" fill="#FFFFFF" fill-rule="nonzero" stroke="#CA9090">
            <g id="cib:mathworks-copy" transform="translate(43.000000, 596.000000)">
                <path d="M21.4426142,112.126526 C15.5175345,107.695718 8.1381509,102.492875 0,96.5664825 L28.8219979,85.4558953 L40.6609989,94.3510784 C31.7901169,104.723198 25.8836344,108.434186 21.4426142,112.145174 L21.4426142,112.126526 Z M100.540383,81.0064389 C98.3124336,75.0837761 96.8395324,69.1424651 94.6153029,63.212343 C92.4096706,56.5288343 90.2003188,50.6061715 86.4957492,45.4182471 C85.0079702,43.2065726 82.0621679,38 78.3613177,38 C77.6211477,38 76.8884166,38.7347384 76.1333688,38.7347384 C73.9202976,39.4955843 70.9596174,43.9226628 70.2231668,46.8951831 C68.0175345,50.6061715 63.5579171,56.5288343 60.6158342,60.236093 C59.8756642,61.7130291 58.3841658,63.2086133 57.6514346,63.950811 C55.4458023,65.4240175 53.2141339,67.6617994 50.272051,69.1387354 C49.5132837,69.1387354 48.7805526,69.8734738 48.044102,69.8734738 C45.8310308,69.8734738 44.3395324,71.3504099 42.8703507,72.0851483 C40.6572795,74.3229302 38.4330499,77.2730727 36.2236982,79.5108546 C36.2236982,80.245593 35.4649309,80.9840611 34.7321998,81.7449069 L45.8310308,89.8792442 C53.9691817,80.245593 63.5765143,70.6082122 70.2194474,52.0793779 C70.2194474,52.0793779 68.0138151,72.1037965 50.2683316,93.5939622 C39.1657811,106.200134 30.2911796,112.879913 28.8182784,114.356849 C28.8182784,114.356849 31.7640808,113.62211 34.7284803,115.099046 C40.65356,117.310721 43.5993624,125.471166 45.8273114,131.393829 C47.3002125,135.843285 49.5058448,139.554273 51.0010627,144 C56.9112646,142.523064 60.6121148,140.289012 64.3129649,136.581753 C67.9914984,132.893142 71.6923486,128.439956 75.3931987,124.732698 C82.0584485,116.575983 90.1780021,106.203863 100.521785,111.391788 C102.009564,112.126526 104.222635,113.62584 104.955367,114.360578 C107.183316,115.837515 108.656217,117.314451 110.880446,119.548503 C114.566419,122.502375 116.054198,124.736427 119,126.213363 C111.620616,111.395517 106.446865,96.5702122 100.521785,80.9915204 L100.540383,81.0064389 Z" id="Shape"></path>
            </g>
        </g>
    </g>
</svg>