<?xml version="1.0" encoding="UTF-8"?>
<svg width="124px" height="109px" viewBox="0 0 124 109" version="1.1" xmlns="http://www.w3.org/2000/svg" xmlns:xlink="http://www.w3.org/1999/xlink">
    <title>Desktop</title>
    <g id="Page-1" stroke="none" stroke-width="1" fill="none" fill-rule="evenodd">
        <g id="Desktop" transform="translate(-184.000000, -612.000000)">
            <g id="cib:mathworks-copy" transform="translate(186.000000, 613.000000)">
                <rect id="ViewBox" x="0" y="53" width="119" height="119"></rect>
                <path d="M21.4426142,74.1265262 C15.5175345,69.695718 8.1381509,64.492875 -7.10542736e-15,58.5664825 L28.8219979,47.4558953 L40.6609989,56.3510784 C31.7901169,66.7231976 25.8836344,70.434186 21.4426142,74.1451743 L21.4426142,74.1265262 Z M100.540383,43.0064389 C98.3124336,37.0837761 96.8395324,31.1424651 94.6153029,25.212343 C92.4096706,18.5288343 90.2003188,12.6061715 86.4957492,7.41824707 C85.0079702,5.2065726 82.0621679,0 78.3613177,0 C77.6211477,0 76.8884166,0.734738398 76.1333688,0.734738398 C73.9202976,1.49558425 70.9596174,5.92266282 70.2231668,8.89518314 C68.0175345,12.6061715 63.5579171,18.5288343 60.6158342,22.236093 C59.8756642,23.7130291 58.3841658,25.2086133 57.6514346,25.950811 C55.4458023,27.4240175 53.2141339,29.6617994 50.272051,31.1387354 C49.5132837,31.1387354 48.7805526,31.8734738 48.044102,31.8734738 C45.8310308,31.8734738 44.3395324,33.3504099 42.8703507,34.0851483 C40.6572795,36.3229302 38.4330499,39.2730727 36.2236982,41.5108546 C36.2236982,42.245593 35.4649309,42.9840611 34.7321998,43.7449069 L45.8310308,51.8792442 C53.9691817,42.245593 63.5765143,32.6082122 70.2194474,14.0793779 C70.2194474,14.0793779 68.0138151,34.1037965 50.2683316,55.5939622 C39.1657811,68.2001337 30.2911796,74.8799127 28.8182784,76.3568488 C28.8182784,76.3568488 31.7640808,75.6221104 34.7284803,77.0990465 C40.65356,79.3107209 43.5993624,87.4711657 45.8273114,93.3938285 C47.3002125,97.8432849 49.5058448,101.554273 51.0010627,106 C56.9112646,104.523064 60.6121148,102.289012 64.3129649,98.5817529 C67.9914984,94.8931424 71.6923486,90.4399564 75.3931987,86.7326977 C82.0584485,78.5759825 90.1780021,68.2038633 100.521785,73.3917878 C102.009564,74.1265262 104.222635,75.62584 104.955367,76.3605784 C107.183316,77.8375145 108.656217,79.3144506 110.880446,81.5485029 C114.566419,84.502375 116.054198,86.7364273 119,88.2133634 C111.620616,73.3955174 106.446865,58.5702122 100.521785,42.9915204 L100.540383,43.0064389 Z" id="Shape" stroke="#CA9090" stroke-width="2" fill="#FFFFFF" fill-rule="nonzero"></path>
            </g>
        </g>
    </g>
</svg>