<?xml version="1.0" encoding="UTF-8"?>
<svg width="79px" height="75px" viewBox="0 0 79 75" version="1.1" xmlns="http://www.w3.org/2000/svg" xmlns:xlink="http://www.w3.org/1999/xlink">
    <title>Desktop</title>
    <g id="Page-1" stroke="none" stroke-width="1" fill="none" fill-rule="evenodd">
        <g id="Desktop" transform="translate(-791.000000, -230.000000)">
            <g id="emojione-monotone:package" transform="translate(791.000000, 230.000000)" fill="#000000" fill-rule="nonzero">
                <path d="M27.5,0 L0,16.3964167 L0,38.5733333 L27.5,55 L55,38.5733333 L55,16.4266667 L27.5,0 Z M27.5,1.93325 L52.5231667,16.8813333 L42.3729167,22.94325 L17.4414167,7.93008333 L27.5,1.93325 Z M26.66675,52.569 L1.6665,37.6355833 L1.6665,18.3315 L26.6658333,33.2630833 L26.6658333,52.569 L26.66675,52.569 Z M2.45391667,16.8675833 L12.4776667,10.8909167 L37.6465833,25.7665833 L27.5,31.8275833 L2.45391667,16.8675833 Z M53.3335,37.6355833 L43.1933333,43.692 L43.1933333,37.00675 L38.46975,39.82825 L38.46975,46.5135 L28.33325,52.5680833 L28.33325,33.2630833 L38.46975,27.2195 L38.46975,33.8900833 L43.1933333,31.0695 L43.1933333,24.4035 L53.3335,18.3580833 L53.3335,37.6355833 L53.3335,37.6355833 Z" id="Shape"></path>
                <polygon id="Path" points="23 6.16182631 28.9663376 10 34 6.83817369 28.0345904 3"></polygon>
                <polygon id="Path" points="53 20 48 22.6935555 48 30 53 27.3020605"></polygon>
                <polygon id="Path" points="29 51 35 47.2213225 35 37 29 40.77148"></polygon>
            </g>
            <g id="carbon:category-new-each" transform="translate(839.000000, 275.000000)">
                <rect id="ViewBox" x="0" y="0" width="32" height="32"></rect>
                <path d="M29,10 L24,10 L24,12 L29,12 L29,18 L22,18 L22,20 L25,20 L25,22.142 C23.0496933,22.645567 21.7780748,24.5207867 22.0318812,26.5190005 C22.2856876,28.5172143 23.9857319,30.0149833 26,30.0149833 C28.0142681,30.0149833 29.7143124,28.5172143 29.9681188,26.5190005 C30.2219252,24.5207867 28.9503067,22.645567 27,22.142 L27,20 L29,20 C30.1038844,19.9983479 30.9983479,19.1038844 31,18 L31,12 C30.9988975,10.8958875 30.1041125,10.0011025 29,10 L29,10 Z M28,26 C28,27.1045695 27.1045695,28 26,28 C24.8954305,28 24,27.1045695 24,26 C24,24.8954305 24.8954305,24 26,24 C27.1038844,24.0016521 27.9983479,24.8961156 28,26 L28,26 Z" id="Shape" fill="#000000" fill-rule="nonzero"></path>
                <path d="M19,6 L14,6 L14,8 L19,8 L19,14 L12,14 L12,16 L15,16 L15,22.142 C13.0496933,22.645567 11.7780748,24.5207867 12.0318812,26.5190005 C12.2856876,28.5172143 13.9857319,30.0149833 16,30.0149833 C18.0142681,30.0149833 19.7143124,28.5172143 19.9681188,26.5190005 C20.2219252,24.5207867 18.9503067,22.645567 17,22.142 L17,16 L19,16 C20.1041125,15.9988975 20.9988975,15.1041125 21,14 L21,8 C20.9988975,6.89588748 20.1041125,6.00110246 19,6 L19,6 Z M18,26 C18,27.1045695 17.1045695,28 16,28 C14.8954305,28 14,27.1045695 14,26 C14,24.8954305 14.8954305,24 16,24 C17.1038844,24.0016521 17.9983479,24.8961156 18,26 Z" id="Shape" fill="#000000" fill-rule="nonzero"></path>
                <path d="M9,2 L3,2 C1.89588748,2.00110246 1.00110246,2.89588748 1,4 L1,10 C1.00110246,11.1041125 1.89588748,11.9988975 3,12 L5,12 L5,22.142 C3.04969328,22.645567 1.77807479,24.5207867 2.03188121,26.5190005 C2.28568764,28.5172143 3.98573188,30.0149833 6,30.0149833 C8.01426812,30.0149833 9.71431236,28.5172143 9.96811879,26.5190005 C10.2219252,24.5207867 8.95030672,22.645567 7,22.142 L7,12 L9,12 C10.1041125,11.9988975 10.9988975,11.1041125 11,10 L11,4 C10.9988975,2.89588748 10.1041125,2.00110246 9,2 L9,2 Z M8,26 C8,27.1045695 7.1045695,28 6,28 C4.8954305,28 4,27.1045695 4,26 C4,24.8954305 4.8954305,24 6,24 C7.10411252,24.0011025 7.99889754,24.8958875 8,26 Z M3,10 L3,4 L9,4 L9.002,10 L3,10 Z" id="Shape" fill="#000000" fill-rule="nonzero"></path>
            </g>
        </g>
    </g>
</svg>